<svg width="194" height="23" viewBox="0 0 194 23" fill="none" xmlns="http://www.w3.org/2000/svg">
<path d="M12.3477 18H8.90234V3.80859H3.83984V18H0.394531V0.9375H12.3477V18ZM18.582 12V18H15.1367V0.9375H20.9492C22.6367 0.9375 23.9805 1.46094 24.9805 2.50781C25.9883 3.55469 26.4922 4.91406 26.4922 6.58594C26.4922 8.25781 25.9961 9.57812 25.0039 10.5469C24.0117 11.5156 22.6367 12 20.8789 12H18.582ZM18.582 9.12891H20.9492C21.6055 9.12891 22.1133 8.91406 22.4727 8.48438C22.832 8.05469 23.0117 7.42969 23.0117 6.60938C23.0117 5.75781 22.8281 5.08203 22.4609 4.58203C22.0938 4.07422 21.6016 3.81641 20.9844 3.80859H18.582V9.12891ZM40.8125 11.0039C40.8125 13.293 40.2695 15.0703 39.1836 16.3359C38.1055 17.6016 36.6055 18.2344 34.6836 18.2344C32.7695 18.2344 31.2656 17.6094 30.1719 16.3594C29.0781 15.1016 28.5234 13.3438 28.5078 11.0859V8.16797C28.5078 5.82422 29.0508 3.99609 30.1367 2.68359C31.2227 1.36328 32.7305 0.703125 34.6602 0.703125C36.5586 0.703125 38.0547 1.35156 39.1484 2.64844C40.2422 3.9375 40.7969 5.75 40.8125 8.08594V11.0039ZM37.3555 8.14453C37.3555 6.60547 37.1367 5.46094 36.6992 4.71094C36.2617 3.96094 35.582 3.58594 34.6602 3.58594C33.7461 3.58594 33.0703 3.94922 32.6328 4.67578C32.1953 5.39453 31.9688 6.49219 31.9531 7.96875V11.0039C31.9531 12.4961 32.1758 13.5977 32.6211 14.3086C33.0664 15.0117 33.7539 15.3633 34.6836 15.3633C35.582 15.3633 36.25 15.0195 36.6875 14.332C37.125 13.6367 37.3477 12.5625 37.3555 11.1094V8.14453ZM47.7852 0.9375L51.0078 13.2773L54.2188 0.9375H58.7188V18H55.2617V13.3828L55.5781 6.26953L52.168 18H49.8242L46.4141 6.26953L46.7305 13.3828V18H43.2852V0.9375H47.7852ZM73.0625 12.3164C72.9766 14.2617 72.4297 15.7344 71.4219 16.7344C70.4141 17.7344 68.9922 18.2344 67.1562 18.2344C65.2266 18.2344 63.7461 17.6016 62.7148 16.3359C61.6914 15.0625 61.1797 13.25 61.1797 10.8984V8.02734C61.1797 5.68359 61.7109 3.87891 62.7734 2.61328C63.8359 1.33984 65.3125 0.703125 67.2031 0.703125C69.0625 0.703125 70.4727 1.22266 71.4336 2.26172C72.4023 3.30078 72.9531 4.79297 73.0859 6.73828H69.6289C69.5977 5.53516 69.4102 4.70703 69.0664 4.25391C68.7305 3.79297 68.1094 3.5625 67.2031 3.5625C66.2812 3.5625 65.6289 3.88672 65.2461 4.53516C64.8633 5.17578 64.6602 6.23438 64.6367 7.71094V10.9336C64.6367 12.6289 64.8242 13.793 65.1992 14.4258C65.582 15.0586 66.2344 15.375 67.1562 15.375C68.0625 15.375 68.6875 15.1562 69.0312 14.7188C69.375 14.2734 69.5703 13.4727 69.6172 12.3164H73.0625ZM87.1484 18H83.7148V10.6992H78.6289V18H75.1836V0.9375H78.6289V7.83984H83.7148V0.9375H87.1484V18ZM98.2812 14.5078H93.582L92.668 18H89.0234L94.3555 0.9375H97.5078L102.875 18H99.1953L98.2812 14.5078ZM94.332 11.6367H97.5195L95.9258 5.55469L94.332 11.6367ZM114.043 3.80859H107.926V7.06641H109.965C111.691 7.06641 113.066 7.55859 114.09 8.54297C115.113 9.51953 115.625 10.8281 115.625 12.4688C115.625 14.1016 115.125 15.4258 114.125 16.4414C113.125 17.4492 111.801 17.9688 110.152 18H104.469V0.9375H114.043V3.80859ZM107.926 9.92578V15.1406H110.012C110.684 15.1406 111.211 14.8906 111.594 14.3906C111.984 13.8828 112.18 13.2344 112.18 12.4453C112.18 11.7031 111.988 11.1016 111.605 10.6406C111.23 10.1719 110.707 9.93359 110.035 9.92578H107.926ZM123.383 12.0703H117.652V9.30469H123.383V12.0703ZM133.133 5.63672C133.133 5.01172 132.957 4.51172 132.605 4.13672C132.262 3.76172 131.793 3.57422 131.199 3.57422C130.676 3.57422 130.246 3.75781 129.91 4.125C129.582 4.48438 129.418 4.96484 129.418 5.56641H125.973C125.973 4.62109 126.199 3.78125 126.652 3.04688C127.113 2.30469 127.746 1.73047 128.551 1.32422C129.355 0.917969 130.238 0.714844 131.199 0.714844C132.895 0.714844 134.215 1.14062 135.16 1.99219C136.113 2.83594 136.59 4.02734 136.59 5.56641C136.59 6.34766 136.391 7.0625 135.992 7.71094C135.602 8.35156 135.062 8.85938 134.375 9.23438C135.156 9.5625 135.758 10.0625 136.18 10.7344C136.602 11.3984 136.812 12.2266 136.812 13.2188C136.812 14.7578 136.301 15.9766 135.277 16.875C134.254 17.7734 132.895 18.2227 131.199 18.2227C130.168 18.2227 129.234 18.0234 128.398 17.625C127.57 17.2266 126.922 16.6562 126.453 15.9141C125.992 15.1719 125.762 14.2891 125.762 13.2656H129.219C129.219 13.8516 129.402 14.3516 129.77 14.7656C130.137 15.1797 130.613 15.3867 131.199 15.3867C131.855 15.3867 132.379 15.1797 132.77 14.7656C133.16 14.3516 133.355 13.8164 133.355 13.1602C133.355 12.2773 133.188 11.6445 132.852 11.2617C132.516 10.8789 132.027 10.6875 131.387 10.6875H129.641V7.91016H131.398C132.555 7.90234 133.133 7.14453 133.133 5.63672ZM147.453 14.5078H142.754L141.84 18H138.195L143.527 0.9375H146.68L152.047 18H148.367L147.453 14.5078ZM143.504 11.6367H146.691L145.098 5.55469L143.504 11.6367ZM157.098 12V18H153.652V0.9375H159.465C161.152 0.9375 162.496 1.46094 163.496 2.50781C164.504 3.55469 165.008 4.91406 165.008 6.58594C165.008 8.25781 164.512 9.57812 163.52 10.5469C162.527 11.5156 161.152 12 159.395 12H157.098ZM157.098 9.12891H159.465C160.121 9.12891 160.629 8.91406 160.988 8.48438C161.348 8.05469 161.527 7.42969 161.527 6.60938C161.527 5.75781 161.344 5.08203 160.977 4.58203C160.609 4.07422 160.117 3.81641 159.5 3.80859H157.098V9.12891ZM173.68 18V11.8594H171.875L169.355 18H165.641L168.664 10.6172C167.258 9.64062 166.555 8.17188 166.555 6.21094C166.555 4.52344 167.027 3.22266 167.973 2.30859C168.926 1.39453 170.273 0.9375 172.016 0.9375H177.137V18H173.68ZM170.012 6.48047C170.012 7.42578 170.18 8.11328 170.516 8.54297C170.852 8.96484 171.375 9.17578 172.086 9.17578H173.68V3.80859H171.969C170.664 3.80859 170.012 4.69922 170.012 6.48047ZM193.496 22.1953H190.332V18H182.258V22.1836H179L178.812 15.1406H179.949C180.449 14.6797 180.844 13.9375 181.133 12.9141C181.422 11.8906 181.625 10.5508 181.742 8.89453L182.223 0.9375H192.031V15.1406H193.801L193.496 22.1953ZM183.652 15.1406H188.598V3.80859H185.504L185.223 8.50781C185.027 11.3281 184.504 13.5391 183.652 15.1406Z" fill="url(#paint0_linear)"/>
<defs>
<linearGradient id="paint0_linear" x1="135.233" y1="-4.00004" x2="42.9257" y2="13.1624" gradientUnits="userSpaceOnUse">
<stop stop-color="#333399"/>
<stop offset="0.766831" stop-color="#663366"/>
</linearGradient>
</defs>
</svg>
